<svg width="16" height="16" viewBox="0 0 16 16" fill="none" xmlns="http://www.w3.org/2000/svg">
<path d="M6.16665 14.6667L5.89999 12.5333C5.75554 12.4778 5.61943 12.4111 5.49165 12.3333C5.36388 12.2556 5.23888 12.1722 5.11665 12.0833L3.13332 12.9167L1.29999 9.75001L3.01665 8.45001C3.00554 8.37223 2.99999 8.29723 2.99999 8.22501V7.77501C2.99999 7.70279 3.00554 7.62779 3.01665 7.55001L1.29999 6.25001L3.13332 3.08334L5.11665 3.91668C5.23888 3.82779 5.36665 3.74445 5.49999 3.66668C5.63332 3.5889 5.76665 3.52223 5.89999 3.46668L6.16665 1.33334H9.83332L10.1 3.46668C10.2444 3.52223 10.3805 3.5889 10.5083 3.66668C10.6361 3.74445 10.7611 3.82779 10.8833 3.91668L12.8667 3.08334L14.7 6.25001L12.9833 7.55001C12.9944 7.62779 13 7.70279 13 7.77501V8.22501C13 8.29723 12.9889 8.37223 12.9667 8.45001L14.6833 9.75001L12.85 12.9167L10.8833 12.0833C10.7611 12.1722 10.6333 12.2556 10.5 12.3333C10.3667 12.4111 10.2333 12.4778 10.1 12.5333L9.83332 14.6667H6.16665ZM7.33332 13.3333H8.64999L8.88332 11.5667C9.22777 11.4778 9.54721 11.3472 9.84165 11.175C10.1361 11.0028 10.4055 10.7945 10.65 10.55L12.3 11.2333L12.95 10.1L11.5167 9.01668C11.5722 8.86112 11.6111 8.69723 11.6333 8.52501C11.6555 8.35279 11.6667 8.17779 11.6667 8.00001C11.6667 7.82223 11.6555 7.64723 11.6333 7.47501C11.6111 7.30279 11.5722 7.1389 11.5167 6.98334L12.95 5.90001L12.3 4.76668L10.65 5.46668C10.4055 5.21112 10.1361 4.99723 9.84165 4.82501C9.54721 4.65279 9.22777 4.52223 8.88332 4.43334L8.66665 2.66668H7.34999L7.11665 4.43334C6.77221 4.52223 6.45276 4.65279 6.15832 4.82501C5.86388 4.99723 5.59443 5.20557 5.34999 5.45001L3.69999 4.76668L3.04999 5.90001L4.48332 6.96668C4.42777 7.13334 4.38888 7.30001 4.36665 7.46668C4.34443 7.63334 4.33332 7.81112 4.33332 8.00001C4.33332 8.17779 4.34443 8.35001 4.36665 8.51668C4.38888 8.68334 4.42777 8.85001 4.48332 9.01668L3.04999 10.1L3.69999 11.2333L5.34999 10.5333C5.59443 10.7889 5.86388 11.0028 6.15832 11.175C6.45276 11.3472 6.77221 11.4778 7.11665 11.5667L7.33332 13.3333ZM8.03332 10.3333C8.67777 10.3333 9.22777 10.1056 9.68332 9.65001C10.1389 9.19446 10.3667 8.64445 10.3667 8.00001C10.3667 7.35557 10.1389 6.80557 9.68332 6.35001C9.22777 5.89445 8.67777 5.66668 8.03332 5.66668C7.37777 5.66668 6.82499 5.89445 6.37499 6.35001C5.92499 6.80557 5.69999 7.35557 5.69999 8.00001C5.69999 8.64445 5.92499 9.19446 6.37499 9.65001C6.82499 10.1056 7.37777 10.3333 8.03332 10.3333Z" fill="#1D1D1D"/>
</svg>
